<?xml version="1.0" encoding="UTF-8"?>
<!DOCTYPE svg PUBLIC "-//W3C//DTD SVG 1.1//EN" "http://www.w3.org/Graphics/SVG/1.1/DTD/svg11.dtd">
<!-- Creator: CorelDRAW X7 -->
<svg xmlns="http://www.w3.org/2000/svg" xml:space="preserve" width="93.1334mm" height="56.0072mm" version="1.1" style="shape-rendering:geometricPrecision; text-rendering:geometricPrecision; image-rendering:optimizeQuality; fill-rule:evenodd; clip-rule:evenodd"
viewBox="0 0 1004 604"
 xmlns:xlink="http://www.w3.org/1999/xlink">
 <defs>
  <style type="text/css">
   <![CDATA[
    .fil1 {fill:none}
    .fil3 {fill:#D6BA32}
    .fil6 {fill:#EAEAEA}
    .fil4 {fill:#FCD83B}
    .fil5 {fill:#FEFEFE}
    .fil0 {fill:white}
    .fil2 {fill:#373435;fill-rule:nonzero}
   ]]>
  </style>
 </defs>
 <g id="Capa_x0020_1">
  <metadata id="CorelCorpID_0Corel-Layer"/>
  <path class="fil0" d="M557 300l-34 19c3,7 10,15 14,19 17,19 45,26 73,24 37,-3 65,-27 59,-69 -4,-28 -25,-41 -46,-51 -8,-4 -15,-7 -23,-10 -12,-6 -24,-11 -23,-26 2,-15 18,-19 31,-15 10,4 13,12 17,16l32 -20c-1,-4 -10,-16 -14,-19 -3,-2 -5,-4 -9,-6 -4,-3 -7,-4 -11,-5 -18,-6 -39,-5 -55,2 -35,14 -41,59 -21,85 8,12 21,20 37,27 8,3 16,6 23,10 10,5 23,11 20,27 -4,20 -38,22 -54,9 -11,-8 -13,-14 -16,-17z"/>
  <path class="fil0" d="M375 324c1,4 6,12 8,14 11,14 27,22 46,24 14,1 29,-1 40,-6 26,-12 31,-35 31,-62l0 -139 -42 0c0,40 0,80 0,120 0,17 4,43 -12,48 -8,3 -18,2 -24,-3 -5,-3 -12,-12 -13,-17 -2,1 -7,4 -9,5l-25 16z"/>
  <rect class="fil1" width="1004" height="604"/>
  <path class="fil2" d="M203 458l20 0 0 61c0,8 -1,15 -2,19 -2,6 -6,10 -11,14 -5,3 -11,5 -19,5 -10,0 -17,-3 -23,-8 -5,-6 -7,-14 -7,-24l18 -2c0,5 1,9 3,12 2,3 5,5 9,5 4,0 8,-1 9,-4 2,-2 3,-8 3,-15l0 -63z"/>
  <path id="1" class="fil2" d="M257 506l-16 -3c1,-7 5,-12 9,-15 5,-3 12,-5 21,-5 8,0 15,1 19,3 4,2 7,4 8,7 2,3 3,9 3,17l-1 22c0,6 1,11 1,14 1,2 2,6 4,9l-19 0c0,-1 -1,-3 -2,-5 0,-2 0,-2 0,-3 -3,3 -7,6 -10,7 -4,2 -8,3 -12,3 -7,0 -13,-2 -17,-6 -4,-4 -6,-9 -6,-15 0,-4 1,-8 3,-11 1,-3 4,-5 7,-7 4,-2 9,-3 15,-4 9,-2 15,-3 18,-5l0 -2c0,-3 -1,-6 -2,-7 -2,-2 -5,-3 -10,-3 -4,0 -6,1 -8,2 -2,2 -3,4 -5,7zm25 15c-2,1 -6,2 -11,3 -5,1 -9,2 -10,3 -3,2 -4,4 -4,7 0,3 1,5 3,7 2,2 5,3 8,3 3,0 6,-2 9,-4 2,-1 4,-3 5,-6 0,-2 0,-5 0,-9l0 -4z"/>
  <path id="2" class="fil2" d="M338 555l-28 -71 20 0 13 36 4 12c1,-3 1,-5 2,-6 0,-2 1,-4 2,-6l13 -36 19 0 -28 71 -17 0z"/>
  <path id="3" class="fil2" d="M408 506l-16 -3c2,-7 5,-12 9,-15 5,-3 12,-5 21,-5 8,0 15,1 19,3 4,2 7,4 8,7 2,3 3,9 3,17l-1 22c0,6 1,11 1,14 1,2 2,6 4,9l-19 0c0,-1 -1,-3 -2,-5 0,-2 0,-2 0,-3 -3,3 -7,6 -10,7 -4,2 -8,3 -12,3 -7,0 -13,-2 -17,-6 -4,-4 -6,-9 -6,-15 0,-4 1,-8 3,-11 1,-3 4,-5 8,-7 3,-2 8,-3 14,-4 9,-2 15,-3 18,-5l0 -2c0,-3 0,-6 -2,-7 -2,-2 -5,-3 -10,-3 -4,0 -6,1 -8,2 -2,2 -3,4 -5,7zm25 15c-2,1 -6,2 -11,3 -5,1 -8,2 -10,3 -2,2 -4,4 -4,7 0,3 1,5 3,7 2,2 5,3 8,3 3,0 6,-2 9,-4 3,-1 4,-3 5,-6 0,-2 0,-5 0,-9l0 -4z"/>
  <path id="4" class="fil2" d="M465 523l19 -1c1,6 4,11 7,14 4,3 8,4 14,4 7,0 11,-1 15,-4 3,-3 4,-6 4,-9 0,-3 0,-4 -2,-6 -1,-2 -3,-3 -7,-4 -2,-1 -7,-2 -15,-5 -11,-2 -18,-5 -22,-9 -6,-6 -9,-12 -9,-20 0,-5 1,-9 4,-14 3,-4 7,-7 12,-10 5,-2 12,-3 19,-3 12,0 21,3 28,8 6,5 9,13 9,22l-19 0c-1,-5 -3,-8 -6,-10 -3,-3 -7,-4 -12,-4 -6,0 -10,1 -13,4 -2,1 -3,3 -3,6 0,2 0,4 2,6 3,2 9,4 18,6 10,3 17,5 22,7 4,3 8,6 10,10 3,4 4,10 4,16 0,5 -1,10 -5,15 -3,5 -7,9 -13,11 -5,3 -12,4 -21,4 -12,0 -22,-3 -28,-9 -7,-5 -11,-14 -12,-25z"/>
  <path id="5" class="fil2" d="M622 505l-18 4c-1,-4 -2,-7 -4,-9 -3,-1 -5,-2 -9,-2 -5,0 -8,1 -11,4 -3,4 -4,9 -4,17 0,8 1,14 4,17 3,4 7,6 11,6 4,0 7,-1 9,-4 2,-2 4,-5 5,-10l18 3c-2,9 -6,15 -11,19 -5,5 -13,7 -22,7 -10,0 -18,-4 -24,-10 -6,-7 -9,-16 -9,-27 0,-12 3,-21 9,-27 6,-7 14,-10 25,-10 8,0 15,2 20,6 5,3 9,9 11,16z"/>
  <path id="6" class="fil2" d="M654 555l-19 0 0 -71 18 0 0 10c3,-4 5,-7 8,-9 2,-1 5,-2 8,-2 4,0 8,1 12,4l-6 16c-3,-2 -6,-3 -8,-3 -3,0 -5,0 -7,2 -2,1 -3,4 -4,8 -1,3 -2,11 -2,23l0 22z"/>
  <path id="7" class="fil2" d="M689 475l0 -17 19 0 0 17 -19 0zm0 80l0 -71 19 0 0 71 -19 0z"/>
  <path id="8" class="fil2" d="M726 484l18 0 0 11c2,-4 5,-7 9,-9 4,-2 8,-3 13,-3 8,0 15,3 20,10 6,6 9,15 9,26 0,12 -3,21 -9,28 -5,6 -12,10 -21,10 -3,0 -7,-1 -10,-3 -3,-1 -7,-4 -10,-8l0 36 -19 0 0 -98zm19 35c0,8 1,13 4,17 3,4 7,6 12,6 4,0 8,-2 11,-5 2,-4 4,-9 4,-17 0,-8 -2,-13 -5,-17 -3,-4 -6,-5 -11,-5 -4,0 -8,1 -11,5 -3,3 -4,9 -4,16z"/>
  <path id="9" class="fil2" d="M842 484l0 15 -13 0 0 29c0,6 0,9 1,10 0,1 0,2 1,2 1,1 2,1 3,1 2,0 5,0 8,-2l1 15c-4,2 -9,3 -14,3 -4,0 -7,-1 -9,-2 -3,-1 -5,-3 -6,-4 -1,-2 -2,-5 -3,-8 0,-2 0,-6 0,-13l0 -31 -9 0 0 -15 9 0 0 -13 18 -11 0 24 13 0z"/>
  <g id="_1290223233648">
   <path class="fil3" d="M457 112l30 0 0 216c-11,-1 -35,-9 -48,-13l-35 -9c-1,0 -5,-2 -6,-2 -4,-2 -2,-1 -5,-3l1 -35c18,1 41,13 62,15l1 -169zm43 270c0,-35 -1,-301 2,-312l129 0c3,14 -20,270 -24,284l-107 28zm134 -13l29 -327 -325 -1c4,52 10,107 14,159 4,51 7,114 14,163 2,14 14,13 27,16 107,30 84,39 174,12 12,-4 59,-14 67,-22z"/>
   <path class="fil4" d="M514 112l103 1 -3 37 -69 1 0 56c16,2 44,-5 64,-5l-8 104 -88 22 1 -37 62 -17 2 -32 -65 9 1 -139zm-14 270l107 -28c4,-14 27,-270 24,-284l-129 0c-3,11 -2,277 -2,312z"/>
   <path class="fil5" d="M513 251l65 -9 -2 32 -62 17 -1 37 88 -22 8 -104c-20,0 -48,7 -64,5l0 -56 69 -1 3 -37 -103 -1 -1 139z"/>
   <path class="fil6" d="M456 281c-21,-2 -44,-14 -62,-15l-1 35c3,2 1,1 5,3 1,0 5,2 6,2l35 9c13,4 37,12 48,13l0 -216 -30 0 -1 169z"/>
  </g>
 </g>
</svg>
